<?xml version="1.0" standalone="no"?>
<!DOCTYPE svg PUBLIC "-//W3C//DTD SVG 20010904//EN"
 "http://www.w3.org/TR/2001/REC-SVG-20010904/DTD/svg10.dtd">
<svg version="1.0" xmlns="http://www.w3.org/2000/svg"
 width="1024.000000pt" height="1024.000000pt" viewBox="0 0 1024.000000 1024.000000"
 preserveAspectRatio="xMidYMid meet">
<metadata>
Created by potrace 1.11, written by Peter Selinger 2001-2013
</metadata>
<g transform="translate(0.000000,1024.000000) scale(0.100000,-0.100000)"
fill="#000000" stroke="none">
<path d="M4080 10229 c-230 -39 -335 -71 -490 -149 -402 -203 -670 -576 -740
-1026 -24 -157 -25 -264 -4 -398 111 -695 768 -1190 1469 -1106 123 14 184 27
295 62 495 157 866 583 946 1088 26 162 16 389 -24 540 -80 308 -272 582 -534
761 -143 98 -366 186 -545 215 -119 20 -298 26 -373 13z"/>
<path d="M7796 9134 c-594 -92 -1056 -542 -1161 -1129 -40 -223 -27 -432 39
-630 197 -589 780 -972 1386 -910 365 37 646 167 891 414 203 204 321 423 376
699 25 124 24 396 -1 512 -38 175 -118 359 -217 500 -68 97 -224 251 -319 317
-288 197 -654 280 -994 227z"/>
<path d="M1280 7595 c-143 -16 -229 -35 -350 -78 -454 -158 -800 -549 -893
-1007 -51 -250 -50 -325 5 -579 62 -289 246 -574 483 -749 39 -28 77 -58 85
-66 8 -8 61 -37 117 -65 457 -230 985 -194 1423 97 108 71 288 251 362 360 31
46 58 79 60 75 3 -4 3 -2 2 5 -2 7 1 20 6 30 25 44 91 216 115 297 14 49 30
132 36 185 6 52 17 112 24 133 8 20 9 35 4 32 -5 -4 -9 25 -9 67 0 150 -54
368 -129 516 -203 404 -575 675 -1016 741 -125 18 -198 20 -325 6z"/>
<path d="M6115 7158 l-40 -43 43 40 c23 21 42 40 42 42 0 8 -9 0 -45 -39z"/>
<path d="M3149 6803 c-13 -16 -12 -17 4 -4 9 7 17 15 17 17 0 8 -8 3 -21 -13z"/>
<path d="M2996 6632 l-19 -27 24 22 c12 12 21 24 18 27 -2 2 -13 -8 -23 -22z"/>
<path d="M2959 6583 c-13 -16 -12 -17 4 -4 9 7 17 15 17 17 0 8 -8 3 -21 -13z"/>
<path d="M2902 6503 c-26 -38 -34 -53 -29 -53 2 0 16 18 31 40 29 45 28 56 -2
13z"/>
<path d="M5041 6498 c-362 -28 -657 -162 -906 -412 -157 -158 -258 -315 -329
-515 -56 -155 -70 -241 -70 -436 -1 -193 11 -276 60 -425 126 -378 450 -703
834 -838 158 -55 236 -67 445 -66 156 0 207 4 285 21 421 94 779 363 951 714
68 139 90 200 129 354 29 115 32 146 33 270 1 366 -129 682 -387 941 -199 199
-424 317 -708 373 -122 24 -208 29 -337 19z"/>
<path d="M2820 6375 c-7 -9 -11 -17 -9 -20 3 -2 10 5 17 15 14 24 10 26 -8 5z"/>
<path d="M2790 6320 c-6 -11 -8 -20 -6 -20 3 0 10 9 16 20 6 11 8 20 6 20 -3
0 -10 -9 -16 -20z"/>
<path d="M6779 5553 c-13 -16 -12 -17 4 -4 9 7 17 15 17 17 0 8 -8 3 -21 -13z"/>
<path d="M2562 5540 c0 -14 2 -19 5 -12 2 6 2 18 0 25 -3 6 -5 1 -5 -13z"/>
<path d="M2552 5490 c0 -14 2 -19 5 -12 2 6 2 18 0 25 -3 6 -5 1 -5 -13z"/>
<path d="M2542 5370 c0 -19 2 -27 5 -17 2 9 2 25 0 35 -3 9 -5 1 -5 -18z"/>
<path d="M2533 5250 c0 -41 2 -58 4 -37 2 20 2 54 0 75 -2 20 -4 3 -4 -38z"/>
<path d="M8720 5266 c-333 -43 -609 -180 -833 -415 -179 -188 -308 -437 -364
-701 -26 -125 -24 -361 5 -497 102 -477 418 -835 872 -987 154 -51 229 -61
455 -61 193 1 218 3 315 27 236 59 414 151 593 303 214 183 364 432 437 725
27 109 38 360 21 481 -79 557 -505 1000 -1065 1108 -138 27 -307 33 -436 17z"/>
<path d="M2533 5085 c0 -22 2 -30 4 -17 2 12 2 30 0 40 -3 9 -5 -1 -4 -23z"/>
<path d="M6242 4205 c0 -16 2 -22 5 -12 2 9 2 23 0 30 -3 6 -5 -1 -5 -18z"/>
<path d="M6242 4015 c0 -16 2 -22 5 -12 2 9 2 23 0 30 -3 6 -5 -1 -5 -18z"/>
<path d="M2144 3775 c-473 -61 -862 -329 -1066 -733 -113 -225 -153 -391 -153
-637 1 -185 13 -267 64 -418 112 -331 374 -623 685 -767 192 -89 324 -119 546
-127 250 -8 418 26 649 130 148 68 252 138 370 251 257 249 401 556 419 894 9
159 0 279 -29 396 -23 96 -93 281 -114 306 -8 8 -41 57 -74 108 -78 119 -209
255 -333 347 -54 40 -95 75 -93 79 3 3 2 4 -1 1 -4 -2 -41 13 -83 34 -152 77
-316 123 -500 141 -125 12 -157 12 -287 -5z"/>
<path d="M1142 3630 c0 -14 2 -19 5 -12 2 6 2 18 0 25 -3 6 -5 1 -5 -13z"/>
<path d="M1142 3380 c0 -14 2 -19 5 -12 2 6 2 18 0 25 -3 6 -5 1 -5 -13z"/>
<path d="M5915 2694 c-147 -22 -225 -40 -315 -72 l-105 -37 -326 0 -326 0 -6
-195 c-8 -235 -27 -355 -90 -540 -72 -214 -91 -324 -91 -525 -1 -222 31 -372
118 -560 79 -169 275 -401 436 -514 685 -482 1664 -235 2039 515 100 201 143
382 143 604 0 282 -73 516 -234 752 -68 100 -199 235 -290 299 -34 24 -74 55
-88 69 -15 14 -28 25 -31 25 -2 0 -43 19 -90 42 -110 54 -240 98 -354 119 -87
16 -329 27 -390 18z"/>
<path d="M4842 2670 c0 -14 2 -19 5 -12 2 6 2 18 0 25 -3 6 -5 1 -5 -13z"/>
<path d="M3188 1253 c12 -2 30 -2 40 0 9 3 -1 5 -23 4 -22 0 -30 -2 -17 -4z"/>
<path d="M3328 1243 c7 -3 16 -2 19 1 4 3 -2 6 -13 5 -11 0 -14 -3 -6 -6z"/>
</g>
</svg>
